<svg width="24" height="24" viewBox="0 0 24 24" fill="none" xmlns="http://www.w3.org/2000/svg">
<path fill-rule="evenodd" clip-rule="evenodd" d="M12 5C10.067 5 8.5 6.567 8.5 8.5C8.5 10.433 10.067 12 12 12C13.933 12 15.5 10.433 15.5 8.5C15.5 6.567 13.933 5 12 5ZM10.5 8.5C10.5 7.67157 11.1716 7 12 7C12.8284 7 13.5 7.67157 13.5 8.5C13.5 9.32843 12.8284 10 12 10C11.1716 10 10.5 9.32843 10.5 8.5Z" fill="url(#paint0_linear_1155_49495)"/>
<path fill-rule="evenodd" clip-rule="evenodd" d="M2 12C2 6.47715 6.47715 2 12 2C17.5228 2 22 6.47715 22 12C22 17.5228 17.5228 22 12 22C6.47715 22 2 17.5228 2 12ZM12 4C7.58172 4 4 7.58172 4 12C4 13.4017 4.36047 14.7191 4.99377 15.8648C6.79718 14.0939 9.271 13 12 13C14.729 13 17.2028 14.094 19.0062 15.8648C19.6395 14.7191 20 13.4017 20 12C20 7.58172 16.4183 4 12 4ZM12 20C9.71213 20 7.64857 19.0396 6.19048 17.5C7.64962 15.9591 9.71262 15 12 15C14.2874 15 16.3504 15.9591 17.8095 17.5C16.3514 19.0396 14.2879 20 12 20Z" fill="url(#paint1_linear_1155_49495)"/>
<defs>
<linearGradient id="paint0_linear_1155_49495" x1="-3" y1="12" x2="26.9822" y2="11.2695" gradientUnits="userSpaceOnUse">
<stop stop-color="#A1D8FE"/>
<stop offset="0.2859" stop-color="#43B7FE"/>
<stop offset="0.4216" stop-color="#44ACF7"/>
<stop offset="0.6577" stop-color="#4890E3"/>
<stop offset="0.9642" stop-color="#4E62C3"/>
<stop offset="1" stop-color="#4F5CBF"/>
</linearGradient>
<linearGradient id="paint1_linear_1155_49495" x1="-3" y1="12" x2="26.9822" y2="11.2695" gradientUnits="userSpaceOnUse">
<stop stop-color="#A1D8FE"/>
<stop offset="0.2859" stop-color="#43B7FE"/>
<stop offset="0.4216" stop-color="#44ACF7"/>
<stop offset="0.6577" stop-color="#4890E3"/>
<stop offset="0.9642" stop-color="#4E62C3"/>
<stop offset="1" stop-color="#4F5CBF"/>
</linearGradient>
</defs>
</svg>
