<svg width="24" height="24" viewBox="0 0 24 24" fill="none" xmlns="http://www.w3.org/2000/svg">
<g clip-path="url(#clip0_1155_49569)">
<g clip-path="url(#clip1_1155_49569)">
<path d="M23 12.4897C22.8814 12.831 22.7628 13.1724 22.6444 13.5136C22.1326 13.5134 21.6208 13.5127 21.1091 13.5129C20.1959 13.5131 19.2828 13.5137 18.3696 13.5142C17.2636 13.5137 16.1575 13.5137 15.0515 13.5116C14.994 13.5114 14.9859 13.5349 14.9864 13.5837C14.9885 13.7759 14.9927 13.9684 14.9859 14.1603C14.971 14.5835 14.7941 14.9252 14.4554 15.179C14.2057 15.3662 13.9207 15.4394 13.6126 15.4318C12.5322 15.4318 11.4516 15.4318 10.3712 15.4318C10.2853 15.4266 10.1996 15.4295 10.1134 15.4173C9.47466 15.3267 8.99853 14.7827 8.99675 14.1359C8.99626 13.9518 8.99545 13.7676 8.99756 13.5835C8.99804 13.5345 8.98994 13.5113 8.93243 13.5114C7.82642 13.5136 6.72041 13.5136 5.6144 13.5141C4.1894 13.5137 2.7644 13.5134 1.3394 13.5132C1.33746 13.4414 1.30392 13.3791 1.28124 13.3132C1.18647 13.0392 1.09364 12.7643 1 12.4898C1.03499 12.4895 1.07015 12.4892 1.10514 12.4892C3.7016 12.4892 6.2979 12.4888 8.89436 12.4908C8.97374 12.4908 9.00047 12.4749 8.99885 12.3893C8.99302 12.0808 8.99626 11.7723 8.99626 11.4638C8.99707 11.2743 8.99804 11.0847 8.99885 10.8952C9.00371 10.8832 9.01084 10.8715 9.01327 10.859C9.07289 10.5497 9.21448 10.2893 9.45652 10.0837C9.68494 9.88988 9.94772 9.77881 10.2437 9.77718C11.3742 9.77133 12.5046 9.77572 13.6351 9.77393C13.8145 9.7736 13.9883 9.79572 14.1555 9.86175C14.5121 10.0027 14.7585 10.2538 14.9025 10.6102C14.9399 10.703 14.9469 10.8034 14.9853 10.8951C14.9861 11.0845 14.9871 11.2742 14.9879 11.4636C14.9877 11.7777 14.9896 12.0915 14.9859 12.4054C14.9851 12.475 15.0083 12.4905 15.0736 12.4903C15.9605 12.4884 16.8477 12.4888 17.7347 12.489C19.4895 12.4892 21.2448 12.4895 23 12.4897ZM14.0319 12.4264C14.0319 12.1015 14.0324 11.7765 14.0315 11.4516C14.0314 11.36 14.0328 11.269 14.0168 11.1772C13.9374 10.7258 13.528 10.3761 13.0725 10.376C12.3524 10.3757 11.6322 10.3763 10.912 10.3753C10.8441 10.3752 10.7778 10.3856 10.713 10.401C10.2521 10.511 9.95177 10.8944 9.95177 11.3695C9.95177 12.0789 9.95209 12.7882 9.95112 13.4976C9.95096 13.5711 9.96149 13.6429 9.97866 13.7133C10.0898 14.1722 10.4702 14.4718 10.9395 14.4718C11.6327 14.4718 12.3258 14.4718 13.019 14.4716C13.0807 14.4716 13.1415 14.4677 13.2034 14.4583C13.6795 14.3852 14.0317 13.9797 14.0319 13.4986C14.0319 13.1413 14.0319 12.7839 14.0319 12.4264Z" fill="#A1CEF8"/>
<path d="M5.61276 19.4125C5.61276 19.5804 5.61017 19.7484 5.61389 19.9162C5.61519 19.9783 5.59996 20.0009 5.53354 19.9996C5.32601 19.9952 5.11816 19.998 4.91047 19.998C3.75326 19.998 2.59606 19.997 1.43902 19.9999C1.35753 20.0001 1.33614 19.9806 1.3363 19.8975C1.33906 18.3323 1.33825 16.7674 1.33841 15.2022C1.33841 15.1752 1.33954 15.1481 1.34019 15.1211C1.38069 15.1214 1.42103 15.1221 1.46153 15.1221C2.84457 15.1224 4.22778 15.1227 5.61082 15.123C5.61227 15.4475 5.61357 15.7721 5.61503 16.0965C5.61438 16.1208 5.61292 16.1452 5.61292 16.1694C5.6126 17.2504 5.61276 18.3315 5.61276 19.4125Z" fill="#A1CEF8"/>
<path d="M22.6436 15.1211C22.6443 15.1481 22.6454 15.1752 22.6454 15.2022C22.6456 16.7674 22.6447 18.3323 22.6475 19.8975C22.6477 19.9806 22.6263 20.0001 22.5448 19.9999C21.1852 19.9973 19.8259 19.9973 18.4663 19.9998C18.3869 19.9999 18.3665 19.9772 18.3693 19.8999C18.3753 19.7376 18.371 19.575 18.3709 19.4125C18.3709 18.6558 18.3712 17.8989 18.3709 17.1422C18.3707 16.7936 18.3696 16.445 18.3688 16.0964C18.3702 15.7719 18.3715 15.4473 18.373 15.1229C18.4188 15.1226 18.4647 15.1219 18.5105 15.1219C19.8882 15.1217 21.2659 15.1214 22.6436 15.1211Z" fill="#A1CEF8"/>
<path d="M1.33887 11.465C1.33903 10.1271 1.33919 8.78911 1.33935 7.45117C2.76306 7.45085 4.18676 7.45052 5.6103 7.4502C5.61176 7.46678 5.61322 7.48353 5.61467 7.50012C5.61403 8.14998 5.61273 8.79985 5.61273 9.44971C5.61273 10.1212 5.61386 10.7927 5.61435 11.4643C4.18919 11.4645 2.76403 11.4648 1.33887 11.465Z" fill="#A1CEF8"/>
<path d="M22.6442 7.45101C22.6443 8.78895 22.6445 10.1269 22.6447 11.4648C21.2195 11.4647 19.7943 11.4643 18.3692 11.4642C18.3698 11.4291 18.371 11.3938 18.371 11.3586C18.3711 10.2458 18.3711 9.13275 18.371 8.01988C18.371 7.84668 18.3697 7.67332 18.369 7.50012C18.3705 7.48353 18.3719 7.46678 18.3734 7.4502C19.7969 7.45052 21.2206 7.45068 22.6442 7.45101Z" fill="#A1CEF8"/>
<path d="M5.61274 19.4127C5.61274 18.3317 5.61258 17.2505 5.61274 16.1695C5.61274 16.1453 5.61404 16.1209 5.61485 16.0967C7.20039 16.0967 8.7861 16.0967 10.3716 16.0967C10.3725 16.1134 10.3733 16.1303 10.3741 16.1471C10.3736 17.2356 10.3731 18.3242 10.3726 19.4127C8.78594 19.4127 7.19942 19.4127 5.61274 19.4127Z" fill="#69AFE2"/>
<path d="M18.369 16.0967C18.3696 16.4454 18.3709 16.7939 18.3711 17.1425C18.3714 17.8992 18.3711 18.6561 18.3711 19.4128C16.7844 19.4128 15.1979 19.4128 13.6112 19.4128C13.6107 18.3244 13.6102 17.2357 13.6097 16.1473C13.6106 16.1305 13.6114 16.1136 13.6122 16.0968C15.1977 16.0968 16.7834 16.0967 18.369 16.0967Z" fill="#69AFE2"/>
<path d="M22.6442 7.45098C21.2205 7.45066 19.797 7.45033 18.3733 7.45001C18.3728 6.96521 18.3683 6.48026 18.3744 5.99563C18.3764 5.85121 18.4033 5.70615 18.4512 5.56743C18.5157 5.2947 18.6456 5.05368 18.8164 4.8356C19.0025 4.59768 19.2264 4.4009 19.4927 4.25648C19.7119 4.1376 19.946 4.05824 20.1924 4.02392C20.532 3.9766 20.8696 3.99579 21.193 4.11483C21.9533 4.39455 22.426 4.93497 22.6078 5.7268C22.6352 5.84633 22.6475 5.97026 22.6465 6.09532C22.6431 6.5471 22.6447 6.99904 22.6442 7.45098Z" fill="#C0E1FF"/>
<path d="M5.61035 7.4504C4.18665 7.45073 2.76295 7.45105 1.3394 7.45138C1.33908 6.96431 1.32612 6.47675 1.34248 5.99017C1.35398 5.64995 1.4635 5.33038 1.6443 5.03782C1.85167 4.70215 2.12707 4.43853 2.47166 4.25135C2.69976 4.12742 2.9452 4.05213 3.20457 4.02025C3.62093 3.96919 4.01849 4.03066 4.39677 4.20955C4.68838 4.34746 4.93009 4.55026 5.136 4.79875C5.31226 5.01147 5.43749 5.25053 5.52109 5.51285C5.52676 5.53058 5.5287 5.54961 5.53243 5.56798C5.57811 5.70719 5.60743 5.85177 5.60922 5.99618C5.61537 6.48065 5.61084 6.96561 5.61035 7.4504Z" fill="#C0E1FF"/>
<path d="M13.6096 16.147C13.6101 17.2354 13.6106 18.3241 13.6111 19.4125C13.6111 19.483 13.6057 19.5537 13.6124 19.6235C13.6197 19.7006 13.5955 19.724 13.516 19.7235C12.9689 19.7199 12.4218 19.7217 11.8747 19.7217C11.4057 19.7217 10.9369 19.7197 10.4679 19.7237C10.3883 19.7243 10.3642 19.7007 10.3715 19.6236C10.378 19.5539 10.3728 19.4831 10.3728 19.4127C10.3733 18.3242 10.3737 17.2356 10.3742 16.1471C11.4525 16.147 12.531 16.147 13.6096 16.147Z" fill="#A1CEF8"/>
<path d="M10.3727 5.56588C10.3879 5.21266 10.5026 4.89716 10.7226 4.61939C11.0055 4.26242 11.3761 4.05783 11.8223 4.01002C12.2443 3.96481 12.6356 4.07247 12.975 4.33528C13.2792 4.57076 13.4816 4.87667 13.5692 5.25461C13.5929 5.35658 13.616 5.45952 13.6112 5.56588C13.6104 6.19395 13.6095 6.82202 13.6087 7.44993C12.5309 7.44993 11.4529 7.44993 10.3749 7.44993C10.3743 6.82202 10.3735 6.19395 10.3727 5.56588Z" fill="#C0E1FF"/>
<path d="M10.3727 5.56608C10.3735 6.19415 10.3743 6.82222 10.3751 7.45013C10.3737 7.46671 10.3722 7.48347 10.3708 7.50005C8.78538 7.50005 7.20015 7.50005 5.61477 7.50005C5.61331 7.48347 5.61185 7.46671 5.6104 7.45013C5.61088 6.96533 5.61542 6.48038 5.60926 5.99574C5.60748 5.85117 5.57816 5.70659 5.53247 5.56754C5.54592 5.56673 5.55936 5.56543 5.57281 5.56543C7.17278 5.56559 8.77274 5.56575 10.3727 5.56608Z" fill="#69AFE2"/>
<path d="M13.6088 7.45013C13.6096 6.82206 13.6104 6.19399 13.6112 5.56608C15.2112 5.56575 16.811 5.56559 18.4109 5.56543C18.4244 5.56543 18.4378 5.56689 18.4513 5.56754C18.4033 5.70627 18.3764 5.85133 18.3745 5.99574C18.3682 6.48054 18.3729 6.96533 18.3733 7.45013C18.3719 7.46671 18.3704 7.48347 18.369 7.50005C16.7836 7.50005 15.1984 7.50005 13.613 7.50005C13.6117 7.48347 13.6102 7.46688 13.6088 7.45013Z" fill="#69AFE2"/>
<path d="M18.3693 11.4644C19.7944 11.4645 21.2196 11.4648 22.6447 11.465C22.7632 11.8067 22.8816 12.1482 23 12.4899C21.2449 12.4897 19.4895 12.4894 17.7344 12.4892C16.8474 12.4891 15.9602 12.4886 15.0733 12.4905C15.008 12.4907 14.9848 12.4753 14.9856 12.4056C14.9893 12.0918 14.9874 11.7777 14.9876 11.4639C16.1148 11.464 17.242 11.4642 18.3693 11.4644Z" fill="#C0E1FF"/>
<path d="M1.33896 11.465C2.76412 11.4648 4.18928 11.4645 5.61444 11.4644C6.74167 11.4642 7.8689 11.464 8.99614 11.4639C8.9963 11.7724 8.9929 12.081 8.99873 12.3894C9.00035 12.4749 8.97362 12.491 8.89424 12.4909C6.29778 12.4887 3.70148 12.4892 1.10502 12.4892C1.07003 12.4892 1.03487 12.4897 0.999878 12.4899C1.10405 12.1872 1.20805 11.8846 1.31222 11.5821C1.32551 11.544 1.34187 11.5068 1.33896 11.465Z" fill="#C0E1FF"/>
<path d="M5.61067 15.1232C4.22763 15.1229 2.84442 15.1226 1.46139 15.1222C1.42088 15.1222 1.38054 15.1216 1.34004 15.1213C1.33972 14.5854 1.3394 14.0495 1.33923 13.5137C2.76423 13.514 4.18923 13.5143 5.61423 13.5145C5.61374 13.5686 5.61277 13.6228 5.61277 13.677C5.61196 14.1591 5.61131 14.6412 5.61067 15.1232Z" fill="#69AFE2"/>
<path d="M22.6436 15.1213C21.2659 15.1216 19.8882 15.1219 18.5105 15.1223C18.4646 15.1223 18.4188 15.1229 18.3729 15.1232C18.3723 15.0853 18.3712 15.0474 18.371 15.0096C18.3704 14.5113 18.3699 14.013 18.3694 13.5145C19.2826 13.514 20.1957 13.5134 21.1089 13.5132C21.6207 13.5131 22.1324 13.5135 22.6442 13.5139C22.6441 14.0497 22.6439 14.5856 22.6436 15.1213Z" fill="#69AFE2"/>
<path d="M8.99613 11.4637C7.8689 11.4639 6.74166 11.4641 5.61443 11.4642C5.61378 10.7927 5.61265 10.1212 5.61281 9.44959C5.61281 8.79972 5.6141 8.14986 5.61475 7.5C7.20014 7.5 8.78536 7.5 10.3707 7.5C10.3707 8.1388 10.3709 8.77761 10.3709 9.41625C9.93236 9.40535 9.56541 9.55822 9.2845 9.90104C9.04748 10.1904 8.97345 10.5288 8.99872 10.895C8.99791 11.0846 8.99694 11.2741 8.99613 11.4637Z" fill="#4C90CE"/>
<path d="M18.3692 11.4642C17.242 11.4641 16.1147 11.4639 14.9875 11.4637C14.9867 11.2743 14.9857 11.0846 14.9849 10.8952C14.9855 10.8196 14.9899 10.7436 14.986 10.6682C14.9668 10.2936 14.8196 9.98008 14.5363 9.73321C14.2713 9.50228 13.9599 9.40616 13.6125 9.41625C13.6125 8.77744 13.6127 8.13864 13.6127 7.5C15.1981 7.5 16.7833 7.5 18.3687 7.5C18.3693 7.6732 18.3706 7.84656 18.3706 8.01976C18.3708 9.13262 18.3708 10.2456 18.3706 11.3585C18.371 11.3938 18.3698 11.4291 18.3692 11.4642Z" fill="#4C90CE"/>
<path d="M14.0319 12.4266C14.0319 12.784 14.0319 13.1413 14.0319 13.4988C14.0319 13.98 13.6797 14.3856 13.2034 14.4584C13.1415 14.4679 13.0808 14.4718 13.0191 14.4718C12.3258 14.4719 11.6328 14.4719 10.9396 14.4719C10.4702 14.4719 10.09 14.1724 9.97871 13.7134C9.9617 13.643 9.95117 13.5713 9.95117 13.4978C9.95214 12.7884 9.95166 12.079 9.95182 11.3696C9.95182 10.8946 10.2522 10.5111 10.7131 10.4012C10.7779 10.3857 10.8441 10.3755 10.912 10.3755C11.6321 10.3765 12.3523 10.3758 13.0725 10.3761C13.5281 10.3763 13.9375 10.726 14.0169 11.1774C14.0331 11.2691 14.0314 11.3602 14.0316 11.4518C14.0324 11.7769 14.0319 12.1018 14.0319 12.4266ZM11.5871 13.1481C11.5871 13.2564 11.5868 13.3648 11.5871 13.4732C11.5879 13.7086 11.7638 13.8874 11.9934 13.887C12.222 13.8865 12.396 13.7069 12.3965 13.47C12.397 13.2506 12.3979 13.0312 12.3955 12.8118C12.395 12.7632 12.409 12.7364 12.4525 12.7097C12.7258 12.542 12.8976 12.3013 12.9285 11.9775C12.9889 11.3483 12.4269 10.8435 11.806 10.9629C11.3873 11.0434 11.0562 11.4389 11.0523 11.8591C11.0489 12.2376 11.2206 12.5153 11.5338 12.7115C11.5741 12.7367 11.5889 12.7614 11.5879 12.8071C11.5853 12.9206 11.5871 13.0343 11.5871 13.1481Z" fill="#69AFE2"/>
<path d="M5.61072 15.123C5.61137 14.641 5.61201 14.1588 5.61282 13.6768C5.61299 13.6226 5.6138 13.5685 5.61428 13.5143C6.72029 13.5138 7.8263 13.5138 8.93231 13.5117C8.98983 13.5116 8.99793 13.535 8.99744 13.5838C8.99533 13.7679 8.99614 13.9521 8.99663 14.1362C8.99841 14.783 9.47455 15.327 10.1133 15.4176C10.1997 15.4298 10.2852 15.427 10.3711 15.432C10.3712 15.6535 10.3714 15.8749 10.3716 16.0964C8.78602 16.0964 7.20031 16.0964 5.61477 16.0964C5.61347 15.7721 5.61201 15.4476 5.61072 15.123Z" fill="#4C90CE"/>
<path d="M18.3694 13.5145C18.3699 14.0128 18.3704 14.5111 18.371 15.0095C18.371 15.0474 18.3723 15.0853 18.373 15.1232C18.3717 15.4476 18.3702 15.7723 18.3687 16.0967C16.7832 16.0967 15.1975 16.0967 13.6119 16.0967C13.6121 15.8752 13.6123 15.6539 13.6124 15.4324C13.9207 15.44 14.2057 15.3668 14.4552 15.1796C14.7938 14.9256 14.9708 14.5839 14.9857 14.1609C14.9925 13.9689 14.9882 13.7765 14.9862 13.5843C14.9857 13.5355 14.9938 13.512 15.0514 13.5122C16.1574 13.514 17.2634 13.514 18.3694 13.5145Z" fill="#4C90CE"/>
<path d="M13.6126 15.4321C13.6125 15.6536 13.6123 15.875 13.6121 16.0965C13.6113 16.1132 13.6105 16.1301 13.6097 16.1469C12.5312 16.1469 11.4526 16.1469 10.3741 16.1469C10.3733 16.1301 10.3725 16.1132 10.3717 16.0965C10.3715 15.875 10.3714 15.6535 10.3712 15.4321C11.4516 15.4321 12.532 15.4321 13.6126 15.4321Z" fill="#69AFE2"/>
<path d="M13.6128 9.41626C13.9601 9.40602 14.2715 9.50229 14.5365 9.73323C14.8199 9.97993 14.967 10.2936 14.9863 10.6682C14.9902 10.7436 14.9856 10.8194 14.9851 10.8952C14.9467 10.8035 14.9398 10.7031 14.9024 10.6103C14.7585 10.2538 14.5119 10.0029 14.1553 9.86186C13.9883 9.79584 13.8143 9.77372 13.635 9.77405C12.5045 9.77583 11.374 9.77144 10.2436 9.7773C9.94775 9.77876 9.68481 9.88984 9.45638 10.0839C9.21419 10.2894 9.07259 10.5498 9.01314 10.8591C9.01071 10.8716 9.00358 10.8833 8.99872 10.8954C8.97345 10.5291 9.04748 10.1907 9.2845 9.90138C9.56541 9.55856 9.93235 9.40569 10.3709 9.41659C11.4516 9.41626 12.5322 9.41626 13.6128 9.41626Z" fill="#C0E1FF"/>
<path d="M13.6128 9.41637C12.5322 9.41637 11.4515 9.41637 10.3709 9.41637C10.3709 8.77757 10.3707 8.13876 10.3707 7.50012C10.3722 7.48353 10.3736 7.46678 10.3751 7.4502C11.4531 7.4502 12.5309 7.4502 13.6089 7.4502C13.6103 7.46678 13.6118 7.48353 13.6133 7.50012C13.6129 8.13876 13.6129 8.77757 13.6128 9.41637Z" fill="#A1CEF8"/>
<path d="M11.587 13.1483C11.587 13.0346 11.5853 12.9207 11.588 12.8071C11.5891 12.7614 11.5744 12.7368 11.5339 12.7114C11.2207 12.5153 11.0489 12.2375 11.0524 11.8591C11.0563 11.439 11.3873 11.0434 11.8061 10.9629C12.427 10.8436 12.989 11.3484 12.9286 11.9775C12.8975 12.3013 12.7259 12.542 12.4526 12.7096C12.4091 12.7363 12.3951 12.7631 12.3956 12.8118C12.398 13.0312 12.3969 13.2505 12.3966 13.4699C12.3961 13.7069 12.2221 13.8864 11.9935 13.8869C11.764 13.8874 11.588 13.7085 11.5872 13.4732C11.5867 13.3649 11.587 13.2566 11.587 13.1483Z" fill="#4C90CE"/>
</g>
</g>
<defs>
<clipPath id="clip0_1155_49569">
<rect width="24" height="24" fill="white"/>
</clipPath>
<clipPath id="clip1_1155_49569">
<rect width="22" height="16" fill="white" transform="translate(1 4)"/>
</clipPath>
</defs>
</svg>
