<svg width="40" height="40" viewBox="0 0 40 40" fill="none" xmlns="http://www.w3.org/2000/svg">
<circle cx="20" cy="20" r="19" stroke="#E7EAEF" stroke-width="2"/>
<path d="M19.9999 18C19.5999 18 19.1999 18.1 18.8999 18.3C18.5999 18.5 18.2999 18.8 18.1999 19.2C17.9999 19.6 17.9999 20 17.9999 20.4C18.0999 20.8 18.2999 21.1 18.4999 21.4C18.7999 21.7 19.0999 21.9 19.4999 21.9C19.8999 22 20.2999 21.9 20.6999 21.8C21.0999 21.6 21.3999 21.4 21.5999 21.1C21.7999 20.8 21.8999 20.4 21.8999 20C21.8999 19.5 21.6999 19 21.2999 18.6C20.9999 18.2 20.4999 18 19.9999 18ZM19.9999 21.2C19.7999 21.2 19.4999 21.1 19.2999 21C19.0999 20.9 18.8999 20.7 18.8999 20.5C18.7999 20.3 18.7999 20 18.7999 19.8C18.7999 19.6 18.9999 19.3 19.0999 19.2C19.1999 19.1 19.4999 18.9 19.6999 18.9C19.8999 18.9 20.1999 18.9 20.3999 19C20.5999 19.1 20.7999 19.2 20.8999 19.4C20.9999 19.6 21.0999 19.8 21.0999 20.1C21.0999 20.3 21.0999 20.4 20.9999 20.6C20.8999 20.7 20.8999 20.9 20.6999 21C20.4999 21.1 20.4999 21.2 20.2999 21.3C20.2999 21.2 20.1999 21.2 19.9999 21.2Z" fill="#8797B0"/>
<path fill-rule="evenodd" clip-rule="evenodd" d="M18.6226 17.884C19.023 17.617 19.5258 17.5 19.9999 17.5C20.6109 17.5 21.2626 17.7396 21.6777 18.271C22.1527 18.758 22.3999 19.3738 22.3999 20C22.3999 20.4742 22.2829 20.9769 22.016 21.3774C21.7418 21.7886 21.3448 22.0366 20.9235 22.2472L20.8744 22.2718L20.8212 22.2851C20.8082 22.2883 20.7949 22.2917 20.7816 22.295C20.4227 22.3851 19.94 22.5062 19.4382 22.3989C18.8741 22.3783 18.4706 22.0778 18.1464 21.7536L18.1114 21.7185L18.0839 21.6774C18.0797 21.6711 18.0756 21.6649 18.0714 21.6586C17.8772 21.3674 17.636 21.0058 17.5149 20.5213L17.4999 20.4616V20.4C17.4999 20.3898 17.4999 20.3795 17.4999 20.3691C17.4997 19.9976 17.4995 19.5147 17.7293 19.0247C17.8839 18.4832 18.2833 18.1102 18.6226 17.884ZM20.2395 20.7088C20.2905 20.6652 20.3563 20.6166 20.4434 20.5698C20.4475 20.5614 20.4522 20.5513 20.4591 20.5362L20.4605 20.5331C20.4681 20.5165 20.4794 20.4918 20.4918 20.467C20.5086 20.4334 20.5348 20.3839 20.574 20.3308C20.5891 20.2955 20.5925 20.2782 20.5942 20.2678C20.5986 20.2413 20.5999 20.2098 20.5999 20.1C20.5999 19.9274 20.5508 19.8197 20.4527 19.6236C20.4496 19.6174 20.4399 19.6002 20.3968 19.5694C20.3469 19.5337 20.2833 19.5007 20.1763 19.4472C20.1565 19.4373 20.1022 19.4202 20.0002 19.41C19.9086 19.4009 19.8131 19.4001 19.7158 19.4C19.7125 19.4009 19.7078 19.4024 19.7016 19.4045C19.677 19.4132 19.6438 19.4282 19.6052 19.4496C19.5674 19.4706 19.5311 19.4941 19.501 19.5159C19.4861 19.5267 19.4741 19.5361 19.4651 19.5435C19.4582 19.5493 19.4535 19.5536 19.4535 19.5536C19.4535 19.5536 19.4492 19.5582 19.4435 19.5652C19.436 19.5741 19.4266 19.5862 19.4158 19.6011C19.394 19.6312 19.3705 19.6675 19.3495 19.7053C19.3281 19.7439 19.3131 19.7771 19.3045 19.8017C19.3023 19.8079 19.3009 19.8126 19.2999 19.8158C19.3 19.9132 19.3008 20.0087 19.3099 20.1003C19.3201 20.2022 19.3372 20.2566 19.3471 20.2764L19.3999 20.382V20.4565C19.4013 20.4582 19.4028 20.4601 19.4046 20.4621C19.4171 20.4767 19.4349 20.4939 19.4573 20.511C19.4796 20.5281 19.5026 20.5423 19.5235 20.5528C19.6952 20.6386 19.9132 20.7 19.9999 20.7C20.0061 20.7 20.0129 20.7 20.0204 20.6999C20.0731 20.6997 20.1557 20.6993 20.2395 20.7088Z" fill="#8797B0"/>
<path d="M23.0999 16.9C22.3999 16.2 21.5999 15.5 20.7999 14.9C21.3999 14.6 21.9999 14.3 22.5999 14C22.6999 14 22.8999 13.9 22.9999 13.9C23.0999 14 23.2999 14.2 23.4999 14.2C23.6999 14.3 23.8999 14.3 24.0999 14.3C24.2999 14.3 24.4999 14.2 24.5999 14.1C24.7999 14 24.8999 13.8 24.9999 13.7C25.3999 13.7 25.6999 13.9 25.9999 14.1C26.5999 14.7 26.5999 15.9 25.9999 17.4C26.1999 17.7 26.4999 18.1 26.6999 18.4C26.7999 18.2 26.8999 18 26.8999 17.8C27.5999 15.9 27.4999 14.3 26.5999 13.4C26.0999 13 25.5999 12.7 24.8999 12.7C24.7999 12.5 24.5999 12.3 24.3999 12.2C24.1999 12 23.9999 12 23.7999 12C23.5999 12 23.2999 12.1 23.1999 12.3C22.9999 12.5 22.8999 12.7 22.8999 12.9C22.5999 13 22.3999 13 22.1999 13.1C21.3999 13.4 20.5999 13.8 19.8999 14.3C19.1999 13.8 18.3999 13.4 17.5999 13.1C15.6999 12.4 14.0999 12.5 13.2999 13.4C12.4999 14.2 12.2999 15.6 12.8999 17.3C12.6999 17.5 12.5999 17.6 12.5999 17.9C12.5999 18.1 12.5999 18.3 12.6999 18.5C12.7999 18.7 12.8999 18.9 13.0999 19C13.2999 19.1 13.4999 19.2 13.6999 19.2C13.7999 19.4 13.9999 19.7 14.1999 20C13.6999 20.7 13.2999 21.5 12.9999 22.3C12.2999 24.2 12.3999 25.8 13.2999 26.7C13.5999 27 13.8999 27.2 14.2999 27.3C14.6999 27.4 14.9999 27.5 15.3999 27.5C16.1999 27.5 16.9999 27.3 17.6999 27C18.4999 26.7 19.2999 26.3 19.9999 25.8C20.6999 26.3 21.4999 26.7 22.2999 27C22.8999 27.2 23.4999 27.4 24.0999 27.4C24.1999 27.6 24.3999 27.8 24.5999 27.9C24.7999 28 25.0999 28.1 25.2999 28C25.5999 27.9 25.7999 27.8 25.8999 27.6C26.0999 27.4 26.1999 27.2 26.1999 26.9C26.2999 26.8 26.4999 26.7 26.5999 26.6C27.4999 25.7 27.5999 24.1 26.8999 22.2C25.9999 20.3 24.6999 18.4 23.0999 16.9ZM17.2999 26C15.7999 26.6 14.5999 26.6 13.9999 26C13.3999 25.4 13.3999 24.2 13.9999 22.7C14.1999 22.1 14.4999 21.5 14.8999 21C15.4999 21.8 16.1999 22.6 16.8999 23.3C17.0999 23.5 17.2999 23.7 17.5999 23.9C17.8999 23.7 18.1999 23.6 18.4999 23.4C18.1999 23.1 17.8999 22.9 17.5999 22.6C16.4999 21.5 15.4999 20.2 14.6999 18.9C14.8999 18.7 14.9999 18.5 14.9999 18.3C14.9999 18.1 14.9999 17.8 14.8999 17.6C14.6999 17.3 14.5999 17.2 14.3999 17C14.1999 16.9 13.9999 16.8 13.6999 16.8C13.3999 15.6 13.3999 14.6 13.9999 14.1C14.1999 13.9 14.3999 13.8 14.5999 13.7C14.7999 13.6 15.0999 13.6 15.2999 13.6C15.9999 13.6 16.5999 13.8 17.2999 14C17.8999 14.2 18.4999 14.5 18.9999 14.9C18.1999 15.5 17.3999 16.1 16.6999 16.9C16.4999 17.1 16.2999 17.3 16.0999 17.5C16.2999 17.8 16.3999 18.1 16.5999 18.4C16.8999 18.1 17.0999 17.8 17.3999 17.5C18.1999 16.7 18.9999 16 19.8999 15.4C20.7999 16 21.5999 16.7 22.3999 17.5C23.1999 18.3 23.8999 19.1 24.4999 20C23.8999 20.9 23.1999 21.7 22.3999 22.5C20.9999 24.1 19.1999 25.2 17.2999 26ZM25.8999 26C25.6999 26 25.4999 25.9 25.3999 25.8C25.1999 25.8 25.0999 25.8 24.8999 25.8C24.6999 25.8 24.5999 25.9 24.3999 26C24.1999 26.1 24.1999 26.2 24.0999 26.4C23.5999 26.3 23.0999 26.2 22.5999 26C21.9999 25.8 21.3999 25.5 20.8999 25.1C21.6999 24.5 22.4999 23.9 23.1999 23.1C23.8999 22.4 24.5999 21.6 25.1999 20.8C25.4999 21.4 25.7999 21.9 26.0999 22.5C26.4999 24.2 26.4999 25.4 25.8999 26Z" fill="#8797B0"/>
<path fill-rule="evenodd" clip-rule="evenodd" d="M24.5475 11.9951C24.7378 12.099 24.9197 12.2681 25.0448 12.454C25.7537 12.4931 26.2719 12.8174 26.7561 13.2048L26.7669 13.2134L26.7767 13.2232C27.7758 14.2223 27.8446 15.9339 27.1485 17.8481C27.1348 18.0903 27.0207 18.3179 26.9344 18.49C26.9307 18.4974 26.9271 18.5047 26.9235 18.5118L26.7309 18.8971L26.4919 18.5387C26.3946 18.3927 26.2722 18.2213 26.1465 18.0453L26.1449 18.0431C26.0211 17.8697 25.8942 17.6921 25.7919 17.5387L25.719 17.4293L25.7678 17.3072C26.0603 16.576 26.1999 15.9334 26.1999 15.4125C26.1999 14.9033 26.0674 14.5323 25.8395 14.2936C25.5788 14.1201 25.3657 13.987 25.1111 13.9566C25.1095 13.9587 25.1078 13.9609 25.1061 13.9631C25.0844 13.9914 25.0577 14.0262 25.0295 14.0601C24.9635 14.1392 24.8729 14.2341 24.7467 14.3051C24.5983 14.4371 24.3527 14.55 24.0999 14.55C24.0948 14.55 24.0897 14.55 24.0845 14.55C23.9049 14.5501 23.6733 14.5502 23.4368 14.4464C23.2856 14.4295 23.1567 14.3549 23.0671 14.2909C23.0134 14.2526 22.9643 14.2109 22.9226 14.1728C22.9092 14.1771 22.8948 14.1819 22.879 14.1872L22.8759 14.1882C22.8406 14.2 22.7975 14.2143 22.7563 14.2256C22.7331 14.2319 22.7032 14.2394 22.6702 14.2444L21.2694 14.9448C21.97 15.4929 22.6598 16.1066 23.2739 16.7204C24.8987 18.2445 26.215 20.1702 27.1259 22.093L27.1306 22.1031L27.1345 22.1136C27.8454 24.0432 27.7825 25.771 26.7767 26.7768C26.7088 26.8447 26.6158 26.9066 26.5485 26.9514C26.5451 26.9537 26.5418 26.9559 26.5386 26.958C26.5012 26.9829 26.4703 27.0038 26.445 27.0219C26.434 27.1531 26.4044 27.2743 26.3534 27.389C26.2926 27.5257 26.2064 27.6423 26.1034 27.7496C25.9508 28.0178 25.6755 28.1374 25.3937 28.2322C25.2264 28.309 25.0442 28.2988 24.9009 28.2701C24.7473 28.2394 24.6007 28.1799 24.4881 28.1236C24.2852 28.0221 24.0883 27.8438 23.9554 27.6465C23.3642 27.6183 22.7825 27.4244 22.2405 27.2437L22.2121 27.2342C21.4503 26.9486 20.685 26.5726 19.9999 26.1049C19.3165 26.5715 18.5531 26.9466 17.7931 27.2321C17.0696 27.5414 16.2381 27.75 15.3999 27.75C15.0337 27.75 14.7362 27.672 14.427 27.591C14.3651 27.5747 14.3027 27.5584 14.2393 27.5425C13.7839 27.4287 13.4457 27.1993 13.1231 26.8768C12.1174 25.871 12.0544 24.1432 12.7653 22.2136L12.7658 22.2122C13.052 21.4492 13.4286 20.6825 13.8973 19.9966C13.7663 19.7993 13.6368 19.6007 13.5431 19.4359C13.342 19.401 13.156 19.3077 13.0099 19.2345C13.0025 19.2308 12.9953 19.2272 12.9881 19.2236C12.7123 19.0857 12.5791 18.8181 12.4875 18.6342C12.4837 18.6266 12.48 18.6191 12.4763 18.6118C12.3497 18.3586 12.3498 18.1073 12.3499 17.9154C12.3499 17.9103 12.3499 17.9051 12.3499 17.9C12.3499 17.7193 12.3807 17.5735 12.4579 17.4385C12.5008 17.3633 12.5559 17.2967 12.6136 17.235C12.0597 15.5545 12.2518 14.0996 13.118 13.2284C13.573 12.72 14.2402 12.4535 15.0205 12.4006C15.8027 12.3476 16.7137 12.5071 17.6864 12.8654L17.6877 12.8659C18.4495 13.1516 19.2149 13.5274 19.8999 13.9951C20.5815 13.5298 21.3426 13.1554 22.1006 12.8703C22.2259 12.8096 22.3477 12.7805 22.4582 12.756C22.4728 12.7527 22.4872 12.7495 22.5016 12.7464C22.5579 12.734 22.6134 12.7218 22.6719 12.7067C22.7183 12.5041 22.8354 12.3179 22.9977 12.1492C23.0869 11.9996 23.2317 11.904 23.3609 11.8466C23.5042 11.7829 23.6637 11.75 23.7999 11.75L23.8095 11.75C24.0056 11.7499 24.2828 11.7498 24.5475 11.9951ZM24.2231 12.3768C24.1009 12.2545 23.9962 12.25 23.7999 12.25C23.7362 12.25 23.6457 12.2671 23.564 12.3035C23.4791 12.3412 23.4374 12.384 23.4235 12.4118L23.4054 12.4481L23.3767 12.4768C23.204 12.6495 23.1499 12.7897 23.1499 12.9V13.0802L22.979 13.1372C22.834 13.1855 22.7088 13.2129 22.6074 13.2351C22.5934 13.2382 22.5798 13.2411 22.5667 13.2441C22.4558 13.2687 22.382 13.2885 22.3117 13.3236L22.3 13.3295L22.2877 13.3341C21.5038 13.628 20.7241 14.0185 20.0452 14.5034L19.8999 14.6072L19.7546 14.5034C19.076 14.0187 18.2965 13.6283 17.5128 13.3343C16.5858 12.9929 15.747 12.8525 15.0543 12.8994C14.3625 12.9463 13.8317 13.1781 13.4868 13.5661L13.4819 13.5716L13.4767 13.5768C12.7728 14.2807 12.552 15.5631 13.1357 17.2168L13.1881 17.3654L13.0767 17.4768C12.9698 17.5836 12.922 17.634 12.892 17.6865C12.8691 17.7265 12.8499 17.7807 12.8499 17.9C12.8499 18.1063 12.8536 18.2483 12.9235 18.3882C13.0316 18.6043 13.0989 18.72 13.2117 18.7764C13.4262 18.8837 13.5704 18.95 13.6999 18.95H13.8544L13.9235 19.0882C14.0148 19.2707 14.2036 19.5549 14.4079 19.8613L14.5037 20.0049L14.4034 20.1453C13.9186 20.824 13.5282 21.6035 13.2343 22.3871C12.5455 24.2571 12.6826 25.7291 13.4767 26.5232C13.7542 26.8007 14.0159 26.9713 14.3606 27.0575C14.4347 27.076 14.5038 27.094 14.5694 27.1111C14.8748 27.1906 15.1031 27.25 15.3999 27.25C16.1597 27.25 16.9261 27.0596 17.6014 26.7702L17.6121 26.7657C18.3959 26.4717 19.1758 26.0815 19.8546 25.5966L19.9999 25.4928L20.1452 25.5966C20.8228 26.0806 21.601 26.4705 22.3834 26.7643C22.9901 26.9665 23.5491 27.15 24.0999 27.15H24.2544L24.3235 27.2882C24.3993 27.4398 24.5601 27.6006 24.7117 27.6764C24.7992 27.7201 24.9025 27.7606 24.999 27.7799C25.1005 27.8002 25.1602 27.7903 25.1881 27.7764L25.204 27.7685L25.2209 27.7628C25.5211 27.6628 25.6263 27.5882 25.6763 27.4882L25.6945 27.4519L25.7231 27.4232C25.8084 27.338 25.8624 27.2627 25.8965 27.186C25.9301 27.1103 25.9499 27.0208 25.9499 26.9V26.7965L26.0231 26.7232C26.0911 26.6553 26.184 26.5934 26.2514 26.5486C26.2547 26.5463 26.258 26.5441 26.2613 26.542C26.3434 26.4872 26.3945 26.4519 26.4231 26.4232C27.2159 25.6305 27.3539 24.1623 26.6692 22.2969C25.7807 20.4243 24.5 18.5552 22.9289 17.0824L22.9231 17.0769C22.2309 16.3847 21.4399 15.6925 20.6499 15.1L20.3263 14.8573L22.5409 13.75H22.5956C22.5956 13.75 22.6058 13.7484 22.6248 13.7432C22.6512 13.736 22.6818 13.7259 22.7209 13.7128L22.7239 13.7118C22.7593 13.7 22.8024 13.6857 22.8435 13.6744C22.8825 13.6638 22.9402 13.65 22.9999 13.65H23.1035L23.1767 13.7232C23.2277 13.7742 23.2893 13.8352 23.3577 13.8841C23.4309 13.9364 23.4783 13.95 23.4999 13.95H23.5589L23.6117 13.9764C23.7516 14.0464 23.8936 14.05 24.0999 14.05C24.1597 14.05 24.2261 14.0346 24.2889 14.0077C24.3528 13.9803 24.3996 13.9468 24.4231 13.9232L24.4518 13.8945L24.4881 13.8764C24.5435 13.8487 24.5923 13.8037 24.6454 13.74C24.6665 13.7146 24.6853 13.6901 24.7063 13.6627C24.7125 13.6547 24.7189 13.6464 24.7255 13.6378C24.752 13.6036 24.7856 13.5608 24.8231 13.5232L24.8964 13.45H24.9999C25.4761 13.45 25.8315 13.6871 26.1201 13.8797C26.1263 13.8838 26.1325 13.8879 26.1386 13.892L26.1592 13.9057L26.1767 13.9232C26.5388 14.2853 26.6999 14.8088 26.6999 15.4125C26.6999 15.9839 26.5565 16.6477 26.2807 17.3686C26.3632 17.4884 26.4573 17.6202 26.5534 17.7547L26.555 17.7569C26.584 17.7976 26.6132 17.8385 26.6423 17.8793C26.6473 17.852 26.6499 17.8257 26.6499 17.8V17.7554L26.6653 17.7136C27.3516 15.8508 27.2185 14.3828 26.4327 13.5864C25.9536 13.2046 25.511 12.95 24.8999 12.95H24.7454L24.6763 12.8118C24.6005 12.6602 24.4397 12.4994 24.2881 12.4236L24.2518 12.4055L24.2231 12.3768ZM14.9748 13.8613C14.8613 13.8726 14.7716 13.8937 14.7117 13.9236C14.5118 14.0236 14.3452 14.1083 14.1767 14.2768L14.1687 14.2848L14.16 14.2921C13.9288 14.4847 13.7958 14.7859 13.7616 15.2077C13.7307 15.5887 13.7828 16.0475 13.9003 16.5633C14.1542 16.5976 14.3433 16.6922 14.5041 16.7726L14.548 16.7945L14.5767 16.8232C14.7826 17.0291 14.8952 17.1422 15.1079 17.4613L15.1166 17.4743L15.1235 17.4882C15.1936 17.6283 15.2225 17.7886 15.2362 17.9251C15.2499 18.0626 15.2499 18.1979 15.2499 18.2962V18.3C15.2499 18.5277 15.1597 18.737 15.0108 18.9265C15.7846 20.1588 16.7362 21.3827 17.7767 22.4232C17.9175 22.564 18.0591 22.6822 18.21 22.8079L18.2132 22.8106C18.3613 22.9341 18.5187 23.0652 18.6767 23.2232L18.8923 23.4389L18.6386 23.608C18.4756 23.7167 18.3139 23.7976 18.1668 23.8711L18.1617 23.8736C18.0101 23.9494 17.8737 24.0179 17.7386 24.108L17.5999 24.2005L17.4613 24.108C17.1406 23.8943 16.926 23.6797 16.7268 23.4804L16.7231 23.4768C16.0928 22.8464 15.4625 22.136 14.903 21.4159C14.6183 21.8315 14.3956 22.3035 14.2371 22.7791L14.2348 22.786L14.232 22.7929C13.9396 23.524 13.7999 24.1666 13.7999 24.6875C13.7999 25.2088 13.9388 25.5853 14.1767 25.8232C14.4146 26.0612 14.7911 26.2 15.3124 26.2C15.8328 26.2 16.4747 26.0606 17.205 25.7687C19.0819 24.9782 20.845 23.8974 22.2118 22.3354L22.2173 22.3291L22.2231 22.3232C22.9741 21.5723 23.6311 20.8263 24.1981 20C23.6311 19.1737 22.9741 18.4277 22.2231 17.6768C21.4722 16.9259 20.7262 16.2688 19.8999 15.7018C19.0736 16.2688 18.3276 16.9259 17.5767 17.6768C17.4359 17.8176 17.3177 17.9591 17.192 18.1101L17.1893 18.1133C17.0658 18.2614 16.9347 18.4187 16.7767 18.5768L16.5611 18.7924L16.3919 18.5387C16.2833 18.3757 16.2024 18.2139 16.1288 18.0669L16.1263 18.0618C16.0505 17.9102 15.982 17.7738 15.8919 17.6387L15.7782 17.4681L16.5173 16.7291C17.1553 16.0014 17.8723 15.4366 18.5817 14.9015C18.1682 14.6186 17.699 14.397 17.226 14.2389C17.1483 14.2167 17.0724 14.1947 16.9981 14.1731C16.3906 13.997 15.8834 13.85 15.2999 13.85C15.1985 13.85 15.0856 13.8502 14.9748 13.8613ZM15.2961 13.35H15.2999C15.959 13.35 16.5369 13.5181 17.1369 13.6926C17.2137 13.715 17.2909 13.7374 17.3686 13.7596L17.3791 13.7626C18.0012 13.97 18.6287 14.2829 19.1561 14.7048L19.4081 14.9064L19.1499 15.1C18.3473 15.702 17.5682 16.2873 16.8881 17.0646L16.8826 17.0709L16.4161 17.5374C16.4742 17.6396 16.5241 17.7394 16.571 17.8331L16.5735 17.8382C16.5982 17.8875 16.622 17.9351 16.6461 17.9817C16.7003 17.9191 16.7533 17.8554 16.8079 17.79L16.8105 17.7867C16.934 17.6386 17.0651 17.4813 17.2231 17.3232C18.0304 16.5159 18.8432 15.804 19.7612 15.192L19.8999 15.0995L20.0386 15.192C20.9566 15.804 21.7694 16.5159 22.5767 17.3232C23.384 18.1305 24.0959 18.9433 24.7079 19.8613L24.8004 20L24.7079 20.1387C24.0974 21.0545 23.3874 21.8656 22.5826 22.6709C21.1507 24.3049 19.3168 25.4221 17.3969 26.2304L17.3928 26.2322C16.624 26.5397 15.9165 26.7 15.3124 26.7C14.7087 26.7 14.1852 26.5388 13.8231 26.1768C13.4611 25.8147 13.2999 25.2912 13.2999 24.6875C13.2999 24.0852 13.4593 23.3802 13.7651 22.614C13.9725 21.9941 14.2844 21.3693 14.7047 20.8438L14.9063 20.5918L15.0999 20.85C15.6924 21.64 16.3846 22.4311 17.0767 23.1232C17.2435 23.29 17.3998 23.4459 17.6084 23.6005C17.7207 23.5351 17.8305 23.4802 17.9331 23.4289L17.9381 23.4264C17.9874 23.4018 18.035 23.3779 18.0816 23.3538C18.019 23.2997 17.9553 23.2466 17.8899 23.1921L17.8867 23.1894C17.7385 23.0659 17.5812 22.9348 17.4231 22.7768C16.3079 21.6616 15.2961 20.3458 14.487 19.031L14.3835 18.8629L14.5231 18.7232C14.6959 18.5505 14.7499 18.4103 14.7499 18.3C14.7499 18.1986 14.7497 18.0856 14.7387 17.9749C14.7281 17.8689 14.709 17.7836 14.6821 17.724C14.5109 17.4686 14.4232 17.377 14.2519 17.2056C14.0708 17.1157 13.9216 17.05 13.6999 17.05H13.5047L13.4574 16.8606C13.3043 16.2484 13.2226 15.6684 13.2632 15.1673C13.3037 14.6681 13.4684 14.2224 13.8311 13.9153C14.0572 13.6918 14.2847 13.5781 14.4809 13.48L14.4881 13.4764C14.6282 13.4063 14.7885 13.3774 14.925 13.3637C15.0625 13.35 15.1978 13.35 15.2961 13.35ZM25.2426 20.3264L25.4235 20.6882C25.5712 20.9836 25.7192 21.2548 25.8694 21.5303L25.8703 21.532C26.0198 21.806 26.1715 22.0842 26.3235 22.3882L26.3366 22.4143L26.3433 22.4427C26.5455 23.3021 26.6511 24.0526 26.6247 24.6731C26.5983 25.2927 26.4386 25.8148 26.0767 26.1768L26.0035 26.25H25.8999C25.6764 26.25 25.4586 26.1617 25.3085 26.05H24.8999C24.8487 26.05 24.8122 26.0609 24.7617 26.0861C24.7339 26.1 24.7053 26.1165 24.6656 26.1394L24.6592 26.1431C24.6182 26.1668 24.5689 26.195 24.5117 26.2236C24.4488 26.2551 24.4369 26.2743 24.4268 26.2911C24.4171 26.3072 24.4071 26.3282 24.3897 26.3679C24.3877 26.3723 24.3857 26.377 24.3836 26.3819C24.3682 26.417 24.3485 26.4619 24.3235 26.5118L24.2381 26.6826L24.0417 26.6433C23.5496 26.5449 23.033 26.4416 22.5139 26.2349C21.8941 26.0275 21.2692 25.7156 20.7438 25.2952L20.4918 25.0936L20.7499 24.9C21.5526 24.298 22.3316 23.7127 23.0118 22.9354L23.0173 22.9291L23.0231 22.9232C23.7153 22.2311 24.4074 21.44 24.9999 20.65L25.2426 20.3264ZM23.3826 23.2709C22.7446 23.9986 22.0276 24.5635 21.3181 25.0985C21.7332 25.3824 22.2042 25.6046 22.679 25.7628L22.686 25.7652L22.6928 25.7679C23.1067 25.9334 23.5224 26.0278 23.9549 26.1158C23.9673 26.0895 23.9815 26.0615 23.9981 26.0339C24.063 25.9257 24.1511 25.8449 24.2881 25.7764C24.3309 25.755 24.3691 25.7332 24.4094 25.71L24.419 25.7044C24.455 25.6836 24.4962 25.6598 24.5381 25.6389C24.6377 25.5891 24.7511 25.55 24.8999 25.55H25.5035L25.5767 25.6232C25.6003 25.6468 25.647 25.6803 25.7109 25.7077C25.7401 25.7202 25.7701 25.7303 25.7999 25.7374C25.9913 25.4978 26.1042 25.1447 26.1252 24.6519C26.1485 24.1037 26.0565 23.4137 25.8632 22.5857C25.7199 22.3004 25.5763 22.037 25.4305 21.7697L25.4295 21.768C25.3398 21.6036 25.2493 21.4376 25.1583 21.2654C24.6103 21.9662 23.9965 22.6565 23.3826 23.2709Z" fill="#8797B0"/>
</svg>
